<?xml version="1.0" standalone="no"?>
<!DOCTYPE svg PUBLIC "-//W3C//DTD SVG 20010904//EN"
 "http://www.w3.org/TR/2001/REC-SVG-20010904/DTD/svg10.dtd">
<svg version="1.0" xmlns="http://www.w3.org/2000/svg"
 width="500.000000pt" height="500.000000pt" viewBox="0 0 500.000000 500.000000"
 preserveAspectRatio="xMidYMid meet">
<metadata>
Created by potrace 1.14, written by Peter Selinger 2001-2017
</metadata>
<g transform="translate(0.000000,500.000000) scale(0.100000,-0.100000)"
fill="#000000" stroke="none">
<path d="M1420 4376 l-1075 -621 -2 -1255 -2 -1255 1079 -622 1080 -622 1077
622 1078 622 2 1255 2 1255 -1075 620 c-592 341 -1079 621 -1082 622 -4 0
-491 -279 -1082 -621z m650 -1276 l0 -410 475 0 475 0 0 410 0 410 245 0 245
0 0 -1045 0 -1045 -245 0 -245 0 0 430 0 430 -475 0 -475 0 0 -430 0 -430
-240 0 -240 0 0 1045 0 1045 240 0 240 0 0 -410z"/>
</g>
</svg>
